<svg xmlns="http://www.w3.org/2000/svg" id="a" viewBox="0 0 106.86 98.34"><defs><style>      .st0 {        font-family: Inter-Regular, Inter;        font-size: 12px;      }      .st0, .st1 {        fill: #fff;      }      .st2 {        fill: #03539d;      }      .st3 {        fill: #3ebedf;      }    </style></defs><rect class="st1" width="106.86" height="98.34"></rect><rect class="st3" width="106.86" height="49.17"></rect><rect class="st2" y="50.81" width="106.86" height="47.53"></rect><polygon class="st1" points="53.08 7.81 12.12 79.45 94.74 79.45 53.08 7.81"></polygon><g><path class="st1" d="M1.4,28.49v-10.36h3.3c.67,0,1.21.1,1.62.31s.72.53.96.97c.23.44.35.89.35,1.37,0,.44-.1.86-.31,1.25-.2.39-.51.71-.93.95.53.18.94.5,1.23.94.29.44.43.97.43,1.57,0,.49-.09.94-.26,1.35-.17.42-.39.74-.65.96-.26.23-.58.4-.96.51-.39.12-.86.17-1.42.17H1.4ZM2.57,22.49h1.91c.52,0,.89-.04,1.11-.12.3-.1.52-.28.67-.52.15-.24.22-.54.22-.9,0-.34-.07-.65-.21-.91s-.34-.44-.6-.54-.71-.14-1.34-.14h-1.76v3.13ZM2.57,27.27h2.19c.38,0,.64-.02.79-.05.27-.06.49-.15.67-.28.18-.13.33-.32.45-.58.12-.25.17-.54.17-.87,0-.39-.08-.72-.25-1.01-.17-.29-.4-.49-.7-.6-.3-.12-.73-.17-1.29-.17h-2.04v3.56Z"></path><path class="st1" d="M15.21,28.56l3.38-10.36h1.26l3.6,10.36h-1.33l-1.03-3.14h-3.68l-.97,3.14h-1.24ZM17.75,24.31h2.99l-.92-2.87c-.28-.87-.49-1.59-.63-2.15-.11.66-.27,1.32-.47,1.98l-.97,3.04Z"></path><path class="st1" d="M31.27,28.56v-10.36h1.17v9.14h4.34v1.22h-5.5Z"></path></g><g><path class="st1" d="M76.94,18.04v10.45h-.88l-4.08-8.21h-.07v8.21h-.91v-10.45h.88l4.1,8.23h.07v-8.23h.89Z"></path><path class="st1" d="M91.8,21.31h-.91c-.05-.36-.15-.68-.28-.96-.13-.28-.29-.51-.48-.7-.19-.19-.4-.33-.63-.43-.23-.1-.47-.14-.72-.14-.45,0-.86.16-1.23.48-.37.32-.66.79-.88,1.41s-.32,1.39-.32,2.29.11,1.67.32,2.29.51,1.09.88,1.41c.37.32.78.48,1.23.48.25,0,.49-.05.72-.14.23-.1.44-.24.63-.43.19-.19.35-.42.48-.7s.23-.6.28-.96h.91c-.07.53-.19,1.01-.37,1.43s-.4.78-.67,1.07c-.27.29-.57.52-.9.67-.33.15-.69.23-1.07.23-.64,0-1.21-.22-1.71-.65-.5-.44-.89-1.05-1.17-1.86s-.43-1.76-.43-2.86.14-2.05.43-2.86c.29-.8.68-1.42,1.17-1.86.5-.44,1.07-.65,1.71-.65.38,0,.73.08,1.07.23.33.15.63.38.9.67.27.29.49.65.67,1.07.18.42.31.9.37,1.44Z"></path><path class="st1" d="M100.28,28.49v-10.45h4.52v1.12h-3.62v3.53h3.38v1.12h-3.38v3.55h3.67v1.12h-4.58Z"></path></g><text class="st0" transform="translate(3.4 92.27) scale(.65 1)"><tspan x="0" y="0">performance physiotherapy</tspan></text></svg>